<?xml version="1.0" encoding="utf-8"?>
<!-- Generator: Adobe Illustrator 26.2.1, SVG Export Plug-In . SVG Version: 6.00 Build 0)  -->
<svg version="1.1" id="Base" xmlns="http://www.w3.org/2000/svg" xmlns:xlink="http://www.w3.org/1999/xlink" x="0px" y="0px"
	 viewBox="0 0 617 116" style="enable-background:new 0 0 617 116;" xml:space="preserve">
<style type="text/css">
	.st0{fill:#FFFFFF;}
</style>
<g>
	<g>
		<path class="st0" d="M38.6,53.8v19.9c11.9-6,25.9-9.3,39-9.3s27.1,3.4,39,9.3V53.8c-11.9-6.2-25.9-9.6-39-9.6
			C64.5,44.2,50.5,47.6,38.6,53.8z M55.1,53.5c-1,0.3-2,0.6-3,0.9v-1.1l-4.4,1.5v3.3c0,0,4-1.4,5.6-1.9l1.8,1.1V62l-2.5,3.1
			c-1.9,0.6-3.8,1.2-5.6,2c-0.7-0.5-1.5-0.9-2.2-1.4V64c1-0.4,2-0.8,2.9-1.2v1.7l0.4-0.2C49.3,63.9,52,63,52,63v-4.2
			c0,0-4,1.4-5.7,2l-1.6-1.1v-3.8l2.4-3.3c1.8-0.7,3.7-1.4,5.6-2c0.8,0.5,1.5,1,2.3,1.5V53.5z M65.1,50.3v9.5c0,0,1.2-0.2,1.2-0.2
			v2.5c-1.9,0.2-3.7,0.6-5.5,0.9v-2.5l1.2-0.2c0,0,0-9.5,0-9.5l-2.6,0.5V53c-0.8,0.2-1.6,0.4-2.4,0.6v-4.1c4.3-1.1,8.7-1.8,13.2-2.2
			v4.2c-0.8,0.1-1.6,0.2-2.4,0.2v-1.7L65.1,50.3z M98.3,61.6l1.2,0.3c0,0,0-9.5,0-9.5c0,0-1.2-0.3-1.2-0.3v-2.5
			c3.9,1,7.8,2.3,11.5,3.9v3.3c-1-0.4-2-0.8-2.9-1.2v-0.9c0,0-4.3-1.5-4.3-1.5v3.5c0,0,2.8,0.9,4.1,1.4v2.2
			c-1.2-0.4-4.1-1.4-4.1-1.4v3.8l4.3,1.5v-1.1c1,0.4,2,0.8,2.9,1.2V68c-3.7-1.6-7.6-2.9-11.5-3.9V61.6z M82.9,47.1
			c4.4,0.3,8.9,1,13.2,2v4.1c-0.8-0.2-1.6-0.4-2.4-0.5V51l-2.6-0.5V60c0,0,1.2,0.2,1.2,0.2v2.5c-1.8-0.3-3.7-0.6-5.6-0.8v-2.5
			l1.2,0.1c0,0,0-9.5,0-9.5l-2.6-0.3v1.7c-0.8-0.1-1.6-0.1-2.4-0.2V47.1z M82.4,59c0,0,0.9,0.1,1.3,0.1v2.5
			c-1.8-0.1-3.5-0.2-5.3-0.2v-2.5l1.2,0c0,0-0.8-2.2-0.8-2.2L74,56.7L73.2,59c0,0,1.2,0,1.2,0v2.5c-1.7,0.1-3.4,0.2-5,0.3v-2.5
			l1.2-0.1c0,0,4.3-12.2,4.3-12.2c1.1,0,2.3,0,3.4,0L82.4,59z"/>
		<path class="st0" d="M127.2,60.6l4.3-9.4c-7.1-5.2-17.7-9.5-17.7-9.5l3.7-6V25.2h-27l-9.2,14.4c-1.2,0-2.4-0.1-3.6-0.1
			c-1.2,0-2.4,0-3.6,0.1l-9.2-14.4h-27v10.5l3.7,6c0,0-10.6,4.3-17.7,9.5l4.3,9.4l-6.3,20c0,0,5.4-3.8,12.1-7.7v8.8c0,0,3.5-2.3,7-4
			l-3.1,4.8v10.7h29.6V71.1l10.2,16.1l10.2-16.1v22.1h29.6V82.5l-3.1-4.8c3.4,1.7,7,4,7,4v-8.8c6.7,4,12.1,7.7,12.1,7.7L127.2,60.6z
			 M119.3,69.5l0,8.4c-2.5-1.5-5.1-2.8-7.8-4v3.5l3.7,5.7v7.8H90.1v-23c-0.9-0.1-1.8-0.2-2.7-0.3L77.6,83l-9.8-15.4
			c-0.9,0.1-1.8,0.2-2.7,0.3v23H40v-7.8l3.7-5.7v-3.5c-2.7,1.2-5.3,2.5-7.8,4v-8.4c-3.3,1.6-7,3.8-10.5,6.1l4.8-15.3l-3.9-8.6
			c5.4-3.5,11.3-6.5,17.5-8.9V41L40,35v-7.5h23.5l9.1,14.2c1.7-0.1,3.3-0.2,5-0.2c1.7,0,3.3,0.1,5,0.2l9.1-14.2h23.5V35l-3.7,6v1.9
			c6.2,2.4,12.1,5.4,17.5,8.9l-3.9,8.6l4.8,15.3C126.3,73.3,122.6,71.1,119.3,69.5z"/>
		<path class="st0" d="M43.7,45.5c-5.2,2-9.8,4.4-14.3,7.1l3.4,7.5l-3.1,9.8c2-1.1,4-2.2,6.1-3.2V52.2c2.3-1.2,5.8-2.9,7.8-3.7V45.5
			z"/>
		<polygon class="st0" points="74.8,54.5 78,54.5 76.4,50 		"/>
		<path class="st0" d="M122.4,60.2l3.4-7.5c-4.4-2.8-9.1-5.1-14.3-7.1v2.9c2,0.8,5.4,2.5,7.8,3.7v14.5c2.1,1,4.1,2.1,6.1,3.2
			L122.4,60.2z"/>
	</g>
	<g>
		<g>
			<polyline class="st0" points="149.3,18.1 149.3,98.3 151.9,98.3 151.9,18.1 			"/>
		</g>
		<g>
			<path class="st0" d="M175.7,49.3v13.5c0,1.1-0.1,2-0.3,2.7c-0.2,0.6-0.5,1.2-1,1.7c-0.8,0.8-1.7,1.1-2.8,1.1
				c-1.1,0-2.2-0.5-3.4-1.4l1.2-1.6c0.8,0.7,1.5,1.1,2.2,1.1c0.7,0,1.2-0.3,1.6-0.9c0.3-0.6,0.5-1.5,0.5-2.7V49.3H175.7z"/>
			<path class="st0" d="M191.3,62.7h-8L181,68h-2.3l8.6-19.6l8.4,19.6h-2.3L191.3,62.7z M190.5,60.7l-3.1-7.5l-3.2,7.5H190.5z"/>
			<path class="st0" d="M198.4,68l3.1-19.8l7.2,15.8l7.3-15.8l2.9,19.8h-2.1L215,55l-6.4,13.8L202.4,55l-1.8,13H198.4z"/>
			<path class="st0" d="M233.5,51.2h-7.6v5.5h7.4v1.9h-7.4V66h7.6V68h-9.7V49.3h9.7V51.2z"/>
			<path class="st0" d="M248,51.9l-1.7,1.1c-0.5-0.8-0.9-1.3-1.4-1.6c-0.5-0.3-1.1-0.4-1.8-0.4c-0.9,0-1.6,0.3-2.2,0.8
				c-0.6,0.5-0.9,1.2-0.9,2.1c0,1.1,0.9,2,2.6,2.8l1.8,0.8c1.5,0.7,2.6,1.4,3.2,2.2c0.7,0.8,1,1.8,1,3c0,1.6-0.6,3-1.7,4.1
				c-1.2,1.1-2.6,1.7-4.2,1.7c-1.5,0-2.7-0.4-3.7-1.3c-1-0.8-1.7-2-2-3.6l2-0.6c0.5,2.3,1.8,3.4,3.8,3.4c1,0,1.9-0.4,2.7-1.1
				c0.7-0.7,1.1-1.6,1.1-2.6c0-0.8-0.2-1.4-0.7-1.9c-0.5-0.5-1.3-1-2.5-1.6l-1.7-0.8c-0.7-0.3-1.3-0.6-1.7-0.9
				c-0.5-0.3-0.9-0.7-1.2-1c-0.6-0.7-0.9-1.6-0.9-2.6c0-1.4,0.5-2.5,1.5-3.4c1-0.9,2.2-1.4,3.8-1.4C245.2,49,246.8,49.9,248,51.9z"
				/>
			<path class="st0" d="M261.4,49.3l5,14l5.9-15l5.5,15l5.5-14h2.3l-7.8,19.6L272.2,54l-5.9,14.9l-7.2-19.7H261.4z"/>
			<path class="st0" d="M287.1,58.5c0-2.6,1-4.8,2.9-6.7c1.9-1.9,4.2-2.8,6.9-2.8c2.7,0,4.9,1,6.9,2.9s2.9,4.2,2.9,6.8
				c0,2.7-1,5-2.9,6.8c-1.9,1.9-4.2,2.8-6.9,2.8c-2.4,0-4.5-0.8-6.5-2.5C288.2,63.9,287.1,61.5,287.1,58.5z M289.2,58.5
				c0,2.3,0.8,4.2,2.4,5.7c1.5,1.4,3.2,2.1,5.2,2.1c2.1,0,3.9-0.8,5.4-2.3c1.5-1.5,2.2-3.3,2.2-5.5c0-2.2-0.7-4-2.2-5.5
				c-1.5-1.5-3.3-2.3-5.4-2.3c-2.1,0-3.9,0.7-5.4,2.2C290,54.7,289.2,56.4,289.2,58.5z"/>
			<path class="st0" d="M315.9,59.6l5.9,8.4h-2.5l-5.6-8.2h-0.5V68H311V49.3h3c2.2,0,3.8,0.4,4.9,1.3c1.1,1,1.7,2.3,1.7,3.9
				c0,1.4-0.4,2.6-1.3,3.5C318.5,59,317.3,59.5,315.9,59.6z M313.1,57.9h1.3c1.3,0,2.4-0.3,3.1-0.9c0.7-0.6,1.1-1.4,1.1-2.5
				c0-2.2-1.4-3.3-4.2-3.3h-1.2V57.9z"/>
			<path class="st0" d="M330.1,51.2V68H328V51.2h-4.5v-1.9h11.2v1.9H330.1z"/>
			<path class="st0" d="M340.2,56.9h9.6v-7.6h2.1V68h-2.1v-9.1h-9.6V68h-2.1V49.3h2.1V56.9z"/>
			<path class="st0" d="M365.6,68V49.3h3.4c2.1,0,3.6,0.5,4.6,1.5c0.9,1,1.4,2.2,1.4,3.6c0,1.5-0.6,2.7-1.8,3.6
				c1.1,0.3,2,0.9,2.6,1.7c0.6,0.8,0.9,1.8,0.9,3c0,1.5-0.5,2.7-1.6,3.7c-0.6,0.6-1.3,1-2,1.2c-0.7,0.2-1.7,0.4-2.8,0.4H365.6z
				 M367.6,57.5h1.6c0.8,0,1.4-0.1,1.8-0.2c0.4-0.1,0.8-0.4,1.1-0.7c0.5-0.6,0.8-1.3,0.8-2.2c0-2.1-1.2-3.2-3.6-3.2h-1.6V57.5z
				 M367.6,66h2.4c0.9,0,1.6-0.1,2.1-0.2c0.5-0.1,0.9-0.4,1.3-0.8c0.7-0.6,1-1.4,1-2.4c0-1.1-0.4-1.9-1.3-2.6
				c-0.7-0.5-1.9-0.8-3.5-0.8h-2.1V66z"/>
			<path class="st0" d="M391.1,62.7h-8l-2.3,5.3h-2.3l8.6-19.6l8.4,19.6h-2.3L391.1,62.7z M390.3,60.7l-3.1-7.5l-3.2,7.5H390.3z"/>
			<path class="st0" d="M407.7,58.6h7.8v0.5c0,2-0.3,3.5-1,4.7c-0.8,1.4-1.8,2.5-3.3,3.3c-1.4,0.8-3,1.2-4.6,1.2
				c-2.6,0-4.9-0.9-6.8-2.8c-1.9-1.9-2.8-4.2-2.8-6.8c0-2.7,0.9-5,2.8-6.9c1.9-1.9,4.2-2.8,6.9-2.8c1.6,0,3,0.3,4.2,0.9
				c0.6,0.3,1.2,0.7,1.8,1.2c0.6,0.5,1.2,1.1,1.8,1.9l-1.5,1.4c-0.9-1.2-1.9-2.1-2.9-2.7c-1-0.6-2.2-0.8-3.4-0.8
				c-2.1,0-3.9,0.8-5.4,2.3c-1.5,1.5-2.2,3.3-2.2,5.5c0,2.2,0.8,4.1,2.4,5.6c1.5,1.4,3.2,2.1,5.1,2.1c1,0,2-0.2,3-0.7
				c1-0.5,1.8-1.1,2.4-1.9c0.7-0.9,1-1.9,1.1-3.2h-5.5V58.6z"/>
			<path class="st0" d="M422,49.3V66h5.1V68H420V49.3H422z"/>
			<path class="st0" d="M440.3,51.2h-7.6v5.5h7.4v1.9h-7.4V66h7.6V68h-9.7V49.3h9.7V51.2z"/>
			<path class="st0" d="M448.6,59.9l-6.1-10.7h2.4l4.8,8.3l4.8-8.3h2.4l-6.2,10.7v8h-2.1V59.9z"/>
			<path class="st0" d="M184.3,76.6v2.6c-1.8-1.6-3.6-2.5-5.7-2.5c-2.1,0-3.8,0.8-5.3,2.3c-1.5,1.5-2.2,3.3-2.2,5.5
				c0,2.3,0.9,4.2,2.6,5.7c1.5,1.3,3.2,2,5,2c2,0,3.9-0.8,5.6-2.4v2.6c-1.8,1.2-3.7,1.8-5.6,1.8c-2.7,0-4.9-0.9-6.8-2.8
				c-1.9-1.9-2.8-4.1-2.8-6.8c0-2.7,1-5,2.9-6.9c1.9-1.9,4.2-2.9,6.9-2.9C180.7,74.8,182.5,75.4,184.3,76.6z"/>
			<path class="st0" d="M187.5,84.3c0-2.6,1-4.8,2.9-6.7c1.9-1.9,4.2-2.8,6.9-2.8c2.7,0,4.9,1,6.9,2.9c1.9,1.9,2.9,4.2,2.9,6.8
				c0,2.7-1,5-2.9,6.8c-1.9,1.9-4.2,2.8-6.9,2.8c-2.4,0-4.5-0.8-6.5-2.5C188.6,89.7,187.5,87.3,187.5,84.3z M189.6,84.3
				c0,2.3,0.8,4.2,2.4,5.7c1.5,1.4,3.2,2.1,5.2,2.1c2.1,0,3.9-0.8,5.4-2.3c1.5-1.5,2.2-3.3,2.2-5.5c0-2.2-0.7-4-2.2-5.5
				c-1.5-1.5-3.3-2.3-5.4-2.3c-2.1,0-3.9,0.7-5.4,2.2C190.3,80.4,189.6,82.2,189.6,84.3z"/>
			<path class="st0" d="M213.5,75.1v16.7h5.1v1.9h-7.2V75.1H213.5z"/>
			<path class="st0" d="M224.2,75.1v16.7h5.1v1.9h-7.2V75.1H224.2z"/>
			<path class="st0" d="M242.4,77h-7.6v5.5h7.4v1.9h-7.4v7.3h7.6v1.9h-9.7V75.1h9.7V77z"/>
			<path class="st0" d="M256.5,84.4h7.8v0.5c0,2-0.3,3.5-1,4.7c-0.8,1.4-1.8,2.5-3.3,3.3c-1.4,0.8-3,1.2-4.6,1.2
				c-2.6,0-4.9-0.9-6.8-2.8c-1.9-1.9-2.8-4.2-2.8-6.8c0-2.7,0.9-5,2.8-6.9c1.9-1.9,4.2-2.8,6.9-2.8c1.6,0,3,0.3,4.2,0.9
				c0.6,0.3,1.2,0.7,1.8,1.2c0.6,0.5,1.2,1.1,1.8,1.9l-1.5,1.4c-0.9-1.2-1.9-2.1-2.9-2.7s-2.2-0.8-3.4-0.8c-2.1,0-3.9,0.8-5.4,2.3
				c-1.5,1.5-2.2,3.3-2.2,5.5c0,2.2,0.8,4.1,2.4,5.6c1.5,1.4,3.2,2.1,5.1,2.1c1,0,2-0.2,3-0.7c1-0.5,1.8-1.1,2.4-1.9
				c0.7-0.9,1-1.9,1.1-3.2h-5.5V84.4z"/>
			<path class="st0" d="M278.4,77h-7.6v5.5h7.4v1.9h-7.4v7.3h7.6v1.9h-9.7V75.1h9.7V77z"/>
			<path class="st0" d="M290.1,84.3c0-2.6,1-4.8,2.9-6.7c1.9-1.9,4.2-2.8,6.9-2.8c2.7,0,4.9,1,6.8,2.9c1.9,1.9,2.9,4.2,2.9,6.8
				c0,2.7-1,5-2.9,6.8c-1.9,1.9-4.2,2.8-6.9,2.8c-2.4,0-4.5-0.8-6.5-2.5C291.2,89.7,290.1,87.3,290.1,84.3z M292.2,84.3
				c0,2.3,0.8,4.2,2.4,5.7c1.5,1.4,3.2,2.1,5.2,2.1c2.1,0,3.9-0.8,5.4-2.3c1.5-1.5,2.2-3.3,2.2-5.5c0-2.2-0.7-4-2.2-5.5
				c-1.5-1.5-3.3-2.3-5.4-2.3c-2.1,0-3.9,0.7-5.4,2.2C293,80.4,292.2,82.2,292.2,84.3z"/>
			<path class="st0" d="M322.6,77h-6.4v5.5h6.2v1.9h-6.2v9.2H314V75.1h8.5V77z"/>
			<path class="st0" d="M344.8,77h-7.6v5.5h7.4v1.9h-7.4v7.3h7.6v1.9h-9.7V75.1h9.7V77z"/>
			<path class="st0" d="M349.2,93.8V74.3l14.6,15.3V75.1h2.1v19.5l-14.6-15.2v14.4H349.2z"/>
			<path class="st0" d="M381.2,84.4h7.8v0.5c0,2-0.3,3.5-1,4.7c-0.8,1.4-1.8,2.5-3.3,3.3c-1.4,0.8-3,1.2-4.6,1.2
				c-2.6,0-4.9-0.9-6.8-2.8c-1.9-1.9-2.8-4.2-2.8-6.8c0-2.7,0.9-5,2.8-6.9c1.9-1.9,4.2-2.8,6.9-2.8c1.6,0,3,0.3,4.2,0.9
				c0.6,0.3,1.2,0.7,1.8,1.2c0.6,0.5,1.2,1.1,1.8,1.9l-1.5,1.4c-0.9-1.2-1.9-2.1-2.9-2.7c-1-0.6-2.2-0.8-3.4-0.8
				c-2.1,0-3.9,0.8-5.4,2.3c-1.5,1.5-2.2,3.3-2.2,5.5c0,2.2,0.8,4.1,2.4,5.6c1.5,1.4,3.2,2.1,5.1,2.1c1,0,2-0.2,3-0.7
				c1-0.5,1.8-1.1,2.4-1.9c0.7-0.9,1-1.9,1.1-3.2h-5.5V84.4z"/>
			<path class="st0" d="M395.5,75.1v18.7h-2.1V75.1H395.5z"/>
			<path class="st0" d="M401,93.8V74.3l14.6,15.3V75.1h2.1v19.5l-14.6-15.2v14.4H401z"/>
			<path class="st0" d="M432.8,77h-7.6v5.5h7.4v1.9h-7.4v7.3h7.6v1.9h-9.7V75.1h9.7V77z"/>
			<path class="st0" d="M447,77h-7.6v5.5h7.4v1.9h-7.4v7.3h7.6v1.9h-9.7V75.1h9.7V77z"/>
			<path class="st0" d="M456.3,85.4l5.9,8.4h-2.5l-5.6-8.2h-0.5v8.2h-2.1V75.1h3c2.2,0,3.8,0.4,4.9,1.3c1.1,1,1.7,2.3,1.7,3.9
				c0,1.4-0.4,2.6-1.3,3.5C458.8,84.8,457.7,85.3,456.3,85.4z M453.5,83.7h1.3c1.3,0,2.4-0.3,3.1-0.9c0.7-0.6,1.1-1.4,1.1-2.5
				c0-2.2-1.4-3.3-4.2-3.3h-1.2V83.7z"/>
			<path class="st0" d="M468.2,75.1v18.7h-2.1V75.1H468.2z"/>
			<path class="st0" d="M473.7,93.8V74.3l14.6,15.3V75.1h2.1v19.5l-14.6-15.2v14.4H473.7z"/>
			<path class="st0" d="M505.6,84.4h7.8v0.5c0,2-0.3,3.5-1,4.7c-0.8,1.4-1.8,2.5-3.3,3.3c-1.4,0.8-3,1.2-4.6,1.2
				c-2.6,0-4.9-0.9-6.8-2.8c-1.9-1.9-2.8-4.2-2.8-6.8c0-2.7,0.9-5,2.8-6.9c1.9-1.9,4.2-2.8,6.9-2.8c1.6,0,3,0.3,4.2,0.9
				c0.6,0.3,1.2,0.7,1.8,1.2c0.6,0.5,1.2,1.1,1.8,1.9l-1.5,1.4c-0.9-1.2-1.9-2.1-2.9-2.7c-1-0.6-2.2-0.8-3.4-0.8
				c-2.1,0-3.9,0.8-5.4,2.3c-1.5,1.5-2.2,3.3-2.2,5.5c0,2.2,0.8,4.1,2.4,5.6c1.5,1.4,3.2,2.1,5.1,2.1c1,0,2-0.2,3-0.7
				c1-0.5,1.8-1.1,2.4-1.9c0.7-0.9,1-1.9,1.1-3.2h-5.5V84.4z"/>
		</g>
		<g>
			<g>
				<path class="st0" d="M182.4,39.7V31l-4.2,7.7l-4.1-7.6v8.7l1.3,0.9v2.6h-6.6v-2.6l1.3-0.9V27.4l-1.3-0.9v-2.6h5.8l3.7,6.8
					l3.8-6.8h5.7v2.6l-1.3,0.9v12.4l1.3,0.9v2.5h-6.7v-2.6L182.4,39.7z"/>
				<path class="st0" d="M197.9,43.2h-7.1v-2.6l1.4-0.9V27.4l-1.4-0.9v-2.6h7.1v2.6l-1.4,0.9v12.4l1.4,0.9V43.2z"/>
				<path class="st0" d="M213.4,26.8l0.3,0.3v2.2h-4.4v-0.9l-0.5-0.5h-3l-0.5,0.5v2.8l0.1,0.1h6l2,2.2l0.3,0.3v6.3l-3,3.3h-6.9
					l-2.7-3l-0.2-0.3v-2.7h4.4v1.5l0.6,0.7h2.9l0.6-0.7V35l-0.1-0.1h-6.2l-2.2-2.6v-5.2l2.6-2.9l0.3-0.3h6.9L213.4,26.8z"/>
				<path class="st0" d="M229.2,26.8l0.3,0.3v2.2h-4.4v-0.9l-0.5-0.5h-3l-0.5,0.5v2.8l0.1,0.1h6l2,2.2l0.3,0.3v6.3l-3,3.3h-6.9
					l-2.7-3l-0.2-0.3v-2.7h4.4v1.5l0.6,0.7h2.9l0.6-0.7V35l-0.1-0.1h-6.2l-2.2-2.6v-5.2l2.6-2.9l0.3-0.3h6.9L229.2,26.8z"/>
				<path class="st0" d="M239.6,43.2h-7.1v-2.6l1.4-0.9V27.4l-1.4-0.9v-2.6h7.1v2.6l-1.4,0.9v12.4l1.4,0.9V43.2z"/>
				<path class="st0" d="M255.1,26.8l0.3,0.3v2.2H251v-0.9l-0.5-0.5h-3l-0.5,0.5v2.8l0.1,0.1h6l2,2.2l0.3,0.3v6.3l-3,3.3h-6.9
					l-2.7-3l-0.2-0.3v-2.7h4.4v1.5l0.6,0.7h2.9l0.6-0.7V35l-0.1-0.1h-6.2l-2.2-2.6v-5.2l2.6-2.9l0.3-0.3h6.9L255.1,26.8z"/>
				<path class="st0" d="M270.9,26.8l0.3,0.3v2.2h-4.4v-0.9l-0.5-0.5h-3l-0.5,0.5v2.8l0.1,0.1h6l2,2.2l0.3,0.3v6.3l-3,3.3h-6.9
					l-2.7-3l-0.2-0.3v-2.7h4.4v1.5l0.6,0.7h2.9l0.6-0.7V35l-0.1-0.1h-6.2l-2.2-2.6v-5.2l2.6-2.9l0.3-0.3h6.9L270.9,26.8z"/>
				<path class="st0" d="M281.3,43.2h-7.1v-2.6l1.4-0.9V27.4l-1.4-0.9v-2.6h7.1v2.6l-1.4,0.9v12.4l1.4,0.9V43.2z"/>
				<path class="st0" d="M298,26.8l0.3,0.3v6.3l-2.7,2.9l-0.3,0.3H290v3.2l1.5,0.9v2.6h-7.2v-2.6l1.4-0.9V27.4l-1.4-0.9v-2.6h11
					L298,26.8z M293.9,28.4l-0.5-0.5H290v4.8h3.4l0.5-0.5V28.4z"/>
				<path class="st0" d="M314.4,26.8l0.3,0.3v6.3l-2.7,2.9l-0.3,0.3h-5.2v3.2l1.5,0.9v2.6h-7.2v-2.6l1.4-0.9V27.4l-1.4-0.9v-2.6h11
					L314.4,26.8z M310.4,28.4l-0.5-0.5h-3.4v4.8h3.4l0.5-0.5V28.4z"/>
				<path class="st0" d="M324.3,43.2h-7.1v-2.6l1.4-0.9V27.4l-1.4-0.9v-2.6h7.1v2.6l-1.4,0.9v12.4l1.4,0.9V43.2z"/>
				<path class="st0" d="M350.1,26.8l0.3,0.3v2.2H346v-0.9l-0.5-0.5h-3l-0.5,0.5v2.8l0.1,0.1h6l2,2.2l0.3,0.3v6.3l-3,3.3h-6.9
					l-2.7-3l-0.2-0.3v-2.7h4.4v1.5l0.6,0.7h2.9l0.6-0.7V35l-0.1-0.1h-6.2l-2.2-2.6v-5.2l2.6-2.9l0.3-0.3h6.9L350.1,26.8z"/>
				<path class="st0" d="M352.6,23.9h15.5V30h-3.6v-2.1h-2v11.9l1.4,0.9v2.6h-7.1v-2.6l1.4-0.9V27.9h-2V30h-3.6V23.9z"/>
				<path class="st0" d="M383.2,40.7v2.5h-6.8v-2.6l1.3-0.8l-0.8-2.6h-4.5l-0.8,2.6l1.3,0.8v2.6h-6.4v-2.5l1.3-1l4.7-15.1l0.2-0.7
					h4.5l4.7,15.8L383.2,40.7z M375.9,33.6l-1.1-3.9l-1.2,3.9H375.9z"/>
				<path class="st0" d="M381.6,23.9h15.5V30h-3.6v-2.1h-2v11.9l1.4,0.9v2.6h-7.1v-2.6l1.4-0.9V27.9h-2V30h-3.6V23.9z"/>
				<path class="st0" d="M399.3,23.9h14.1v6.1h-4.4v-2.1h-4v3.7h4.7v3.7H405v4.1h4v-1.4h4.4v5.4h-14.1v-2.6l1.4-0.9V27.4l-1.4-0.9
					V23.9z"/>
				<path class="st0" d="M435.6,23.9h6.9v2.6l-1.6,0.9V40l-2.7,2.9l-0.3,0.3h-6.8l-3-3.2V27.4l-1.4-0.9v-2.6h6.6v2.4l-0.8,0.9v11.6
					l0.5,0.5h3l0.5-0.5V27.2l-0.9-0.9V23.9z"/>
				<path class="st0" d="M452,40.6v2.6h-6.5v-2.6l1.4-0.9V27.4l-1.4-0.9v-2.6h5.9l5.6,10.8v-7.3l-1.2-0.9v-2.6h6.4v2.6l-1.3,0.9
					v15.9h-4l-6.2-11.8v8.3L452,40.6z"/>
				<path class="st0" d="M472.3,43.2h-7.1v-2.6l1.4-0.9V27.4l-1.4-0.9v-2.6h7.1v2.6l-1.4,0.9v12.4l1.4,0.9V43.2z"/>
				<path class="st0" d="M484.3,23.9h7.3v2.7l-2,1L485,43.2h-3.8l-4.9-15.7l-1.7-1v-2.6h7.1v2.6l-1.2,0.8l2.6,8.5l2.5-8.5l-1.3-0.8
					V23.9z"/>
				<path class="st0" d="M493.8,23.9h14.1v6.1h-4.4v-2.1h-4v3.7h4.7v3.7h-4.7v4.1h4v-1.4h4.4v5.4h-14.1v-2.6l1.4-0.9V27.4l-1.4-0.9
					V23.9z"/>
				<path class="st0" d="M526.4,40.7v2.5h-6.5v-2.5l0.9-0.7l-1.9-4.5h-2.2v4.3l0.9,0.9v2.5h-6.7v-2.6l1.3-0.9V27.4l-1.3-0.9v-2.6h11
					l3,3.2v5.3l-2,2.1l2.3,5.2L526.4,40.7z M520.5,28.4l-0.6-0.5h-3.3v3.7h3.2l0.6-0.7V28.4z"/>
				<path class="st0" d="M541.4,26.8l0.3,0.3v2.2h-4.4v-0.9l-0.5-0.5h-3l-0.5,0.5v2.8l0.1,0.1h6l2,2.2l0.3,0.3v6.3l-3,3.3h-6.9
					l-2.7-3l-0.2-0.3v-2.7h4.4v1.5l0.6,0.7h2.9l0.6-0.7V35l-0.1-0.1h-6.2l-2.2-2.6v-5.2l2.6-2.9l0.3-0.3h6.9L541.4,26.8z"/>
				<path class="st0" d="M551.8,43.2h-7.1v-2.6l1.4-0.9V27.4l-1.4-0.9v-2.6h7.1v2.6l-1.4,0.9v12.4l1.4,0.9V43.2z"/>
				<path class="st0" d="M554,23.9h15.5V30h-3.6v-2.1h-2v11.9l1.4,0.9v2.6h-7.1v-2.6l1.4-0.9V27.9h-2V30H554V23.9z"/>
				<path class="st0" d="M580.6,23.9h6.3v2.5l-1.3,1.1l-4.2,8.4v3.9l1.4,0.9v2.6h-7.1v-2.6l1.3-0.9v-3.9l-4.2-8.4l-1.2-1.1v-2.5h6.3
					v2.5l-0.8,0.7l2.1,4.2l2.1-4.2l-0.8-0.7V23.9z"/>
			</g>
		</g>
	</g>
	<g>
		<path class="st0" d="M593.8,36.5v1.1h-2.2v5.6h-1.3v-5.6h-2.2v-1.1H593.8z M601.2,43.3l-0.2-4c0-0.5,0-1.2,0-1.9h-0.1
			c-0.2,0.6-0.4,1.4-0.6,2l-1.2,3.8h-1.4l-1.2-3.9c-0.1-0.5-0.3-1.3-0.5-1.9h-0.1c0,0.6,0,1.3-0.1,1.9l-0.2,4h-1.3l0.5-6.8h2
			l1.2,3.3c0.1,0.5,0.3,1,0.4,1.7h0c0.2-0.6,0.3-1.2,0.5-1.7l1.2-3.3h1.9l0.5,6.8H601.2z"/>
	</g>
</g>
</svg>
